<svg width="14" height="18" viewBox="0 0 14 18" fill="none" xmlns="http://www.w3.org/2000/svg">
<path d="M0.921172 6.92637C0.921172 6.19367 1.04925 5.50146 1.30165 4.85539C1.5428 4.22789 1.90108 3.65196 2.35739 3.1583C2.81278 2.67113 3.33389 2.24986 3.90568 1.90668C4.49233 1.55177 5.12745 1.28401 5.79113 1.11181C6.46282 0.935437 7.15446 0.846489 7.84892 0.847172C8.92161 0.847172 9.9199 1.07414 10.8457 1.5262C11.7594 1.97001 12.5371 2.6511 13.0975 3.49829C13.6757 4.36002 13.963 5.33476 13.963 6.42158C13.963 7.07329 13.8989 7.71088 13.768 8.33434C13.6395 8.95745 13.4352 9.56249 13.1596 10.136C12.897 10.6911 12.5536 11.2043 12.1406 11.6588C11.7256 12.1061 11.2229 12.4633 10.6639 12.708C10.057 12.9739 9.40053 13.1078 8.73796 13.1007C8.27743 13.1007 7.81784 12.9924 7.3639 12.7748C6.90996 12.5582 6.58411 12.2606 6.38822 11.8792C6.31947 12.1438 6.22529 12.5262 6.10003 13.0263C5.97948 13.5254 5.89849 13.8475 5.8627 13.9935C5.82503 14.1385 5.75534 14.3806 5.65363 14.7159C5.58465 14.9639 5.49616 15.206 5.38899 15.4401L5.06501 16.0748C4.92491 16.3472 4.76828 16.6108 4.59601 16.8641C4.42554 17.1108 4.21458 17.4056 3.96313 17.7446L3.8228 17.7945L3.72957 17.6928C3.62879 16.6258 3.577 15.9873 3.577 15.7763C3.577 15.1519 3.6514 14.4512 3.79832 13.6733C3.94241 12.8963 4.17032 11.9197 4.4764 10.7453C4.78248 9.57184 4.95765 8.88151 5.00474 8.67715C4.78907 8.23733 4.67982 7.66285 4.67982 6.95651C4.67982 6.39238 4.85594 5.86404 5.20911 5.36678C5.56321 4.87141 6.01056 4.62372 6.55303 4.62372C6.96835 4.62372 7.29044 4.76122 7.52118 5.03716C7.75286 5.31216 7.86587 5.65874 7.86587 6.0816C7.86587 6.52988 7.71707 7.17877 7.41758 8.02732C7.1181 8.8768 6.9693 9.51062 6.9693 9.9316C6.9693 10.3582 7.12186 10.7152 7.427 10.9949C7.72813 11.2747 8.12636 11.4264 8.53736 11.4177C8.91031 11.4177 9.25594 11.333 9.57709 11.1625C9.89322 10.997 10.1669 10.7608 10.3767 10.4722C10.8336 9.84523 11.1594 9.13252 11.3345 8.37672C11.4249 7.97929 11.4946 7.60163 11.5379 7.24658C11.584 6.88964 11.6038 6.55249 11.6038 6.23228C11.6038 5.05788 11.2309 4.14247 10.4897 3.48699C9.74473 2.83151 8.77469 2.50565 7.58145 2.50565C6.22435 2.50565 5.0895 2.94452 4.18068 3.82509C3.27092 4.70283 2.81321 5.81884 2.81321 7.17218C2.81321 7.47072 2.85842 7.75891 2.94412 8.03768C3.02794 8.3155 3.11929 8.53682 3.21818 8.70069C3.31612 8.86173 3.40842 9.01901 3.49224 9.16405C3.577 9.30908 3.62126 9.41268 3.62126 9.47484C3.62126 9.66508 3.57135 9.91276 3.47058 10.2188C3.36604 10.5249 3.24266 10.6775 3.09386 10.6775C3.07974 10.6775 3.02135 10.6671 2.91963 10.6455C2.56737 10.5403 2.24925 10.3437 1.99763 10.0757C1.73057 9.79792 1.51982 9.47107 1.37699 9.11319C1.23458 8.75659 1.12365 8.3882 1.04549 8.01225C0.961039 7.65652 0.919306 7.29199 0.921172 6.92637Z" fill="#555555"/>
</svg>
