<svg width="17" height="17" viewBox="0 0 17 17" fill="none" xmlns="http://www.w3.org/2000/svg">
<path d="M8.07435 6.06035C6.59618 6.06035 5.38988 7.26665 5.38988 8.74482C5.38988 10.223 6.59618 11.4293 8.07435 11.4293C9.55253 11.4293 10.7588 10.223 10.7588 8.74482C10.7588 7.26665 9.55253 6.06035 8.07435 6.06035ZM16.1258 8.74482C16.1258 7.63317 16.1358 6.53159 16.0734 5.42195C16.011 4.13308 15.717 2.98921 14.7745 2.04672C13.83 1.10222 12.6881 0.810213 11.3992 0.747784C10.2876 0.685354 9.186 0.695423 8.07637 0.695423C6.96472 0.695423 5.86313 0.685354 4.7535 0.747784C3.46463 0.810213 2.32075 1.10424 1.37827 2.04672C0.433766 2.99122 0.141756 4.13308 0.0793265 5.42195C0.0168969 6.53361 0.0269662 7.63519 0.0269662 8.74482C0.0269662 9.85446 0.0168969 10.9581 0.0793265 12.0677C0.141756 13.3566 0.43578 14.5004 1.37827 15.4429C2.32277 16.3874 3.46463 16.6794 4.7535 16.7419C5.86515 16.8043 6.96673 16.7942 8.07637 16.7942C9.18802 16.7942 10.2896 16.8043 11.3992 16.7419C12.6881 16.6794 13.832 16.3854 14.7745 15.4429C15.719 14.4984 16.011 13.3566 16.0734 12.0677C16.1379 10.9581 16.1258 9.85648 16.1258 8.74482ZM8.07435 12.8753C5.78862 12.8753 3.94393 11.0306 3.94393 8.74482C3.94393 6.45909 5.78862 4.6144 8.07435 4.6144C10.3601 4.6144 12.2048 6.45909 12.2048 8.74482C12.2048 11.0306 10.3601 12.8753 8.07435 12.8753ZM12.3739 5.40987C11.8403 5.40987 11.4093 4.9789 11.4093 4.44523C11.4093 3.91156 11.8403 3.48059 12.3739 3.48059C12.9076 3.48059 13.3386 3.91156 13.3386 4.44523C13.3387 4.57195 13.3139 4.69746 13.2655 4.81457C13.2171 4.93168 13.146 5.03808 13.0564 5.12769C12.9668 5.2173 12.8604 5.28834 12.7433 5.33677C12.6262 5.38519 12.5007 5.41003 12.3739 5.40987Z" fill="#555555"/>
</svg>
